<svg width="60" height="60" viewBox="0 0 60 60" fill="none" xmlns="http://www.w3.org/2000/svg">
  <circle cx="30" cy="30" r="30" fill="#4A6ADC"/>
  <path d="M30 15C22.268 15 16 21.268 16 29C16 32.251 17.11 35.256 18.996 37.62L17.07 43.142C16.939 43.562 17.072 44.021 17.407 44.307C17.647 44.513 17.954 44.62 18.263 44.62C18.406 44.62 18.55 44.595 18.687 44.544L25.261 42.002C26.756 42.651 28.344 43 30 43C37.732 43 44 36.732 44 29C44 21.268 37.732 15 30 15ZM24 31C22.895 31 22 30.105 22 29C22 27.895 22.895 27 24 27C25.105 27 26 27.895 26 29C26 30.105 25.105 31 24 31ZM30 31C28.895 31 28 30.105 28 29C28 27.895 28.895 27 30 27C31.105 27 32 27.895 32 29C32 30.105 31.105 31 30 31ZM36 31C34.895 31 34 30.105 34 29C34 27.895 34.895 27 36 27C37.105 27 38 27.895 38 29C38 30.105 37.105 31 36 31Z" fill="white"/>
</svg>
